/* XPM */
static char *f3be0846a35c4844c9e92293e1837db5KnBW4jVZtGyqbsBh[] = {
/* columns rows colors chars-per-pixel */
"48 48 4 1 ",
"  c None",
". c #EB1E22",
"X c #9E5E24",
"o c white",
/* pixels */
"                                      XX        ",
"                                      XXX       ",
"                                      XXXX      ",
"                                      XXXX      ",
"                                      XXXX      ",
"                             XXXXXXXXXXXXX      ",
"                             XXXXXXXXXXXXXXXXXXX",
"                             XXXXXXXXXXXXXXXXXXX",
"                    XXXXXXXXXXXXXXXXXXXXXXXXXXXX",
"                    XXXXXXXXXX    XXXXX         ",
"                    XXXXXXXXXX    XXXXX         ",
"                    XXXXXXXXXX    XXXXX         ",
"                XXXXXXXXXXXXXX    XXXXX         ",
"                XXXX              XXXXX         ",
"                XXXX              XXXXX         ",
"                XXXX              XXXXX         ",
"            XXXX             XXXXXXXXXX         ",
"            XXXX             XXXXX              ",
"            XXXX             XXXXX              ",
"      ......XXXX.....        XXXXX              ",
"    ..................   XXXXXXXXX              ",
"   ..................... XXXXX                  ",
"   ..................... XXXXX                  ",
".........................XXXXX                  ",
".........................XXXXX                  ",
".........................XXXXX                  ",
".........................XXXXX......            ",
".....................................           ",
"......................................          ",
"......................................          ",
"...oooo..................................       ",
"...oooo..................................       ",
"...oooo..................................       ",
".........................................       ",
".......oooo..............................       ",
".......oooo..............................       ",
"   ....oooo..............................       ",
"   ...............ooo....................       ",
"    ..............ooo....................       ",
"    ..............ooo....................       ",
"      ...................................       ",
"               .......oooo...............       ",
"               .......oooo...............       ",
"                 .....oooo............          ",
"                 .....................          ",
"                   ..................           ",
"                   ..................           ",
"                     ..............             "
};
