/* XPM */
static char *exit[] = {
/* columns rows colors chars-per-pixel */
"48 48 170 2 ",
"   c #000001",
".  c #01010A",
"X  c #010112",
"o  c #01011E",
"O  c #010123",
"+  c #02022B",
"@  c #020231",
"#  c #03023C",
"$  c #030244",
"%  c #080349",
"&  c #060354",
"*  c #080454",
"=  c #07035B",
"-  c #090459",
";  c #0A0465",
":  c #07046B",
">  c #09036E",
",  c #0B0474",
"<  c #0B047C",
"1  c #0D0584",
"2  c #0D048B",
"3  c #13078D",
"4  c #0E0493",
"5  c #120595",
"6  c #11059B",
"7  c #0F06A5",
"8  c #1005A6",
"9  c #1103AE",
"0  c #0D04BA",
"q  c #1104B2",
"w  c #1104BC",
"e  c #0E04C3",
"r  c #1406C4",
"t  c #1606CA",
"y  c #1806C8",
"u  c #1405D2",
"i  c #1806D4",
"p  c #1609D4",
"a  c #1505DC",
"s  c #0F04E6",
"d  c #1504E4",
"f  c #1804E1",
"g  c #1403ED",
"h  c #1B07EB",
"j  c #1908EB",
"k  c #0D03F4",
"l  c #0E01FB",
"z  c #1402F4",
"x  c #1803F5",
"c  c #1301FC",
"v  c #1002FC",
"b  c #1302FC",
"n  c #1300FE",
"m  c #1201FE",
"M  c #1301FE",
"N  c #1100FC",
"B  c #1400FC",
"V  c #1500FC",
"C  c #1401FC",
"Z  c #1501FC",
"A  c #1400FD",
"S  c #1500FD",
"D  c #1501FD",
"F  c #1401FD",
"G  c #1600FC",
"H  c #1400FE",
"J  c #1500FE",
"K  c #1401FE",
"L  c #1500FF",
"P  c #1601FE",
"I  c #1401FC",
"U  c #1902FD",
"Y  c #3F39EA",
"T  c #443FE4",
"R  c #423BE8",
"E  c #7571D7",
"W  c #7470D8",
"Q  c #7372DD",
"!  c #7372DA",
"~  c #4F48E4",
"^  c #4F44EA",
"/  c #5856E6",
"(  c #5955E3",
")  c #6967E0",
"_  c #6B6CE3",
"`  c #716CE3",
"'  c #7373E1",
"]  c #7B74E5",
"[  c #7D77E2",
"{  c #7E7AE1",
"}  c #A19FD7",
"|  c #A09DD8",
" . c #9FA2DC",
".. c #ACACCF",
"X. c #A4A5D1",
"o. c #A7AED6",
"O. c #A3A1DE",
"+. c #AAADDB",
"@. c #B1AADD",
"#. c #B1B3D4",
"$. c #B8B3D8",
"%. c #B7BADF",
"&. c #BCBEDD",
"*. c #8A85E3",
"=. c #958EE4",
"-. c #918DED",
";. c #9290E4",
":. c #9D9EE4",
">. c #9D9BE5",
",. c #A49FE1",
"<. c #A49DE1",
"1. c #A1A1E1",
"2. c #A2A0E1",
"3. c #A2A1E2",
"4. c #AFAEEA",
"5. c #BFBEE3",
"6. c #B3B0EB",
"7. c #BBB9EB",
"8. c #BBBAEB",
"9. c #BDB8ED",
"0. c #BCB9ED",
"q. c #BDB8EF",
"w. c #BEBEEC",
"e. c #C2C1DF",
"r. c #C3C4E2",
"t. c #C8C3E1",
"y. c #D4CFEC",
"u. c #D7CEEC",
"i. c #D5D2E6",
"p. c #D2D1EA",
"a. c #D6D1EA",
"s. c #D4D0EC",
"d. c #D2D6EE",
"f. c #DCDEEA",
"g. c #E3DCEB",
"h. c #E2DFF0",
"j. c #DFE0E9",
"k. c #E0E1EE",
"l. c #E3E2F1",
"z. c #EDEEF6",
"x. c #EDEDF5",
"c. c #EEEFF9",
"v. c #ECEAF9",
"b. c #F0EEF9",
"n. c #F0EEF8",
"m. c #FCFCF7",
"M. c #FDFDF5",
"N. c #FDFBFB",
"B. c #FEFBFB",
"V. c #FDFDF9",
"C. c #FDFFF9",
"Z. c #FDFDFA",
"A. c #FFFDFB",
"S. c #FDFEFB",
"D. c #FCFFFB",
"F. c #FEFEFA",
"G. c #FFFEFB",
"H. c #FEFEF9",
"J. c #FEFBFE",
"K. c #FDFDFD",
"L. c #FCFCFD",
"P. c #FEFDFC",
"I. c #FFFDFC",
"U. c #FDFEFD",
"Y. c #FEFEFC",
"T. c #FEFEFD",
"R. c #FEFDFE",
"E. c #FCFFFE",
"W. c #FEFEFE",
"Q. c #FDFDFB",
/* pixels */
"                                    .       .   .     .     .                                   ",
"                                  X . .   . .   . .   . . . .   .                               ",
"                                  - 8 q q q q q 9 q q 9 9 9 5 X .   .                           ",
"                                  < G b l b b l b l N N Z Z a O                                 ",
"                                  1 N N N N b b b l b b Z b a o                                 ",
"                    O 1 4 2 2 2 4 q b Z b b b b b b b b Z b d 4 2 2 2 2 4 -                     ",
"                    $ d G N b N z b Z Z Z Z Z Z Z Z Z Z Z Z Z G x G b N z 6                     ",
"                    $ d v N b b b b Z Z Z Z Z Z Z Z Z Z Z b b b b N v l b 6                     ",
"              @ & * , d b b Z b b Z Z Z Z Z Z Z Z Z Z Z Z Z Z Z Z Z Z Z b w - & % .             ",
"              5 x z x N b Z Z Z Z Z Z Z Z Z Z Z Z Z Z Z Z Z Z Z Z Z Z Z N x z z u o             ",
"              6 z N N N Z Z Z Z Z Z Z Z Z Z Z Z Z Z Z Z Z Z Z Z Z Z Z Z N N G k a o             ",
"        o O O 6 N N Z G Z Z Z Z Z Z Z Z Z Z Z Z Z Z Z Z Z Z Z Z Z Z Z Z G Z Z N i # O O X       ",
"        r d g z G G Z Z Z Z Z Z Z Z Z Z Z Z Z Z Z Z Z Z Z Z Z Z Z Z Z Z Z Z Z b N d d g ,       ",
"        u v z N G N Z Z Z Z Z Z Z Z Z Z Z Z Z Z Z Z Z Z Z Z Z Z Z Z Z Z Z Z Z Z x l b k <       ",
"        u N N Z G G G Z Z Z Z Z Z Z Z Z Z Z Z Z Z Z Z Z Z Z Z Z Z Z Z Z Z Z Z Z Z Z b N <       ",
"        u N b Z N G N Z Z Z Z Z Z Z Z Z Z Z Z Z Z Z Z Z Z Z Z Z Z Z Z Z Z Z Z Z Z Z Z N ,       ",
"        u b b Z Z Z Z Z Z Z Z G Z Z Z Z G G G Z Z Z Z Z Z Z Z Z Z Z Z Z Z Z Z Z Z Z b N <       ",
"      . u b Z Z Z Z Z Z Z b x G Z Z G b G G b Z Z Z Z G b N b Z G N x b Z Z Z Z Z Z Z N ,       ",
"        u N Z Z Z Z Z Z b G :.8.9.9.0.0.6.x P Z Z Z Z ] 9.9.9.q.9.0./ G Z Z Z Z Z Z Z N <       ",
"        t G Z Z Z Z Z b b x s.Z.Z.Z.U.Z.b.d P Z Z Z Z ,.m.U.Z.U.U.V.Q z Z Z Z Z Z G N b <       ",
"      . t Z Z Z Z Z Z Z G N s.Z.U.U.U.U.b.g Z Z G b G 2.Z.Z.U.U.U.J.' G Z Z Z Z Z Z N x ,   .   ",
"o > < , a z N Z Z Z Z Z N N s.Z.U.U.U.U.b.d Z Z G G G 2.U.Z.U.U.U.U.' Z Z Z Z Z Z Z G G 6 < , - ",
"% d z U G N Z Z Z Z Z Z G z y.V.U.U.U.U.b.d Z Z G G G 2.B.U.U.U.U.Z.' Z Z Z Z Z Z Z Z Z G b z q ",
"% g v Z Z Z Z Z Z Z Z Z G z s.L.U.U.Z.J.c.d Z Z N G G ,.U.U.U.U.L.L.W b Z Z Z Z Z Z Z Z G N N w ",
"$ g v G Z Z Z Z Z Z Z Z Z z 5.k.l.h.l.l.d.g Z Z Z G Z =.h.l.k.l.l.k.) b G Z Z Z Z Z Z Z Z G z w ",
"$ g v b Z Z Z Z Z Z Z Z Z b x x g z z x x Z Z Z G G Z G z z g x z x x G Z Z Z Z Z Z Z Z Z N N w ",
"$ g G Z Z Z Z Z Z Z Z G Z Z Z Z P P Z Z Z Z Z Z G Z Z Z P P P P Z Z Z Z Z Z Z Z Z Z Z Z Z b N w ",
"$ g N Z Z Z Z Z Z Z Z G Z Z Z Z Z Z Z Z Z Z G G N Z Z Z Z Z Z Z Z Z Z Z Z Z Z Z Z Z Z Z Z b N w ",
"$ g b b Z Z Z Z Z Z Z G Z Z Z Z Z Z Z Z Z Z Z G Z b Z Z Z Z Z Z Z Z Z Z G G Z Z Z Z Z Z Z b b w ",
"$ z b b Z Z Z Z Z Z G G Z Z Z Z Z Z Z Z Z Z G G G x G G Z Z Z Z Z Z Z Z z G G Z Z Z Z Z Z N N 0 ",
"$ z b l Z Z Z G g x x x x z G Z Z Z Z Z G g x x x x x x G Z Z Z P Z z z z x x x g G Z Z Z N N 0 ",
"$ z l b b b b >.g.g.g.g.g.g.[ Z Z Z Z P Y g.g.g.g.g.g.@.b Z Z Z P h e.g.g.g.g.g.u.x b Z G v N 0 ",
"$ z N b Z Z b 4.U.U.U.U.Z.M.*.b P P P G ~ N.U.U.U.B.U.t.b G b P P x k.Z.U.Z.U.M.v.j Z Z Z N v 0 ",
"$ g l b Z Z Z 4.V.Z.Z.Z.Z.Z.*.U U U U x Y N.U.U.B.U.J.r.U G x U U x k.M.Z.U.U.Z.v.h b G G N N 0 ",
"$ g l z +.r.r.#.2.O.O.2.O. .$.r.r.r.r.r.&.}  .| O.O.| ..r.r.r.r.r.r.X.O.O.O.O.O.} e.r.e.` v z 0 ",
"$ z l k f.Z.Z.w.z z b Z N x a.M.U.U.Z.Z.x.d b b b Z Z <.M.U.U.U.U.Z.! g b G N v ~ M.M.B.=.N l 0 ",
"$ g l N f.L.Z.5.z G Z Z G x i.U.U.U.U.U.z.d Z Z Z Z G <.Z.Z.Z.U.U.Z.E x N G Z G ^ M.B.M.-.b l 0 ",
"$ z l z o.e.r.;.z G Z Z G z O.r.r.r.r.r.5.g Z Z Z Z G { r.r.r.r.r.r.( v G Z Z G Y e.e.e._ l b 0 ",
"$ k l l k l k k b v Z Z Z z G z v v N G N G Z Z Z Z Z Z z N N v N z N G G G b G z k z N l b l 0 ",
"$ g l l l b b N b x Z G G v G G G G G G b x Z Z Z Z Z Z G x G N G G G G z G b b N b l l N b l 0 ",
"# k l l l l b d r t t G b G b Z Z Z Z G x r t t y t r i x Z Z Z Z Z Z Z v f t y t z l b l b l 0 ",
"$ k l l l b l 7 X X $ d N G Z Z Z Z Z b i + . X X X X 3 x Z b Z Z Z Z Z G 8 X . $ g l l l l l 0 ",
"$ k l l l l l 7   . % z l b b Z Z Z Z b f O         . 1 Z b Z Z Z Z v b z 6 . . # k l l l l l 0 ",
"$ d l l d g a 5   . # i f a N b Z b Z Z f O           1 Z N Z Z b b d f f 3 . . @ p a d k l l 0 ",
"$ k k k > @ + O .   . + + @ w l l b b b f O           2 G N Z l b z ; + + o     . + + @ 0 l l 0 ",
"$ k l z ; . .             . r b b l b l a o           1 N l b b l x =                 . e l k 0 ",
"$ k k k ; .               X w z N x N g a o           1 z z z z G g =                   e k k 0 ",
"X : : : +   .             . * > : > , > ; .           # > > > , > ; + .               . & : : & "
};
