/* XPM */
static char *_f2efe0368f64fe5c9ca2725b631b007qoqM7rQLPod9FKHd[] = {
/* columns rows colors chars-per-pixel */
"48 48 2 1 ",
"  c None",
". c #F2E000",
/* pixels */
"                   ..........                   ",
"                ................                ",
"             ......................             ",
"            ........................            ",
"          ............................          ",
"         ..............................         ",
"        ................................        ",
"       ..................................       ",
"      ....................................      ",
"     ....................................       ",
"    ....................................        ",
"    ...................................         ",
"   ...................................          ",
"  ...................................           ",
"  ..................................            ",
"  .................................             ",
" .................................              ",
" ................................               ",
" ...............................                ",
"...............................                 ",
"..............................                  ",
".............................                   ",
"............................                    ",
"...........................                     ",
"...........................                     ",
"............................                    ",
".............................                   ",
"..............................                  ",
"...............................                 ",
" ...............................                ",
" ................................               ",
" .................................              ",
"  .................................             ",
"  ..................................            ",
"  ...................................           ",
"   ...................................          ",
"    ...................................         ",
"    ....................................        ",
"     ....................................       ",
"      ....................................      ",
"       ..................................       ",
"        ................................        ",
"         ..............................         ",
"          ............................          ",
"            ........................            ",
"             ......................             ",
"                ................                ",
"                   ..........                   "
};
