/* XPM */
static char *_3313aee42bb4bb7975afd2bffa6381fDRBx7zBWcw2iJjMf[] = {
/* columns rows colors chars-per-pixel */
"48 48 2 1 ",
"  c None",
". c #F2E000",
/* pixels */
"                   ..........                   ",
"                ................                ",
"             ......................             ",
"            ........................            ",
"          ............................          ",
"         ..............................         ",
"        ................................        ",
"       ..................................       ",
"      ....................................      ",
"       ....................................     ",
"        ....................................    ",
"         ...................................    ",
"          ...................................   ",
"           ...................................  ",
"            ..................................  ",
"             .................................  ",
"              ................................. ",
"               ................................ ",
"                ............................... ",
"                 ...............................",
"                  ..............................",
"                   .............................",
"                    ............................",
"                     ...........................",
"                     ...........................",
"                    ............................",
"                   .............................",
"                  ..............................",
"                 ...............................",
"                ............................... ",
"               ................................ ",
"              ................................. ",
"             .................................  ",
"            ..................................  ",
"           ...................................  ",
"          ...................................   ",
"         ...................................    ",
"        ....................................    ",
"       ....................................     ",
"      ....................................      ",
"       ..................................       ",
"        ................................        ",
"         ..............................         ",
"          ............................          ",
"            ........................            ",
"             ......................             ",
"                ................                ",
"                   ..........                   "
};
