/* XPM */
static char *_3c0060d91b447afab02d95ccb62c513cuc0Zp22c7mRmFxf[] = {
/* columns rows colors chars-per-pixel */
"48 48 2 1 ",
"  c None",
". c #1C1AF2",
/* pixels */
"                                                ",
"                                                ",
"                                                ",
"                                                ",
"    ........................................    ",
"    ........................................    ",
"    ........................................    ",
"    ........................................    ",
"    ....                                ....    ",
"    ....                                ....    ",
"    ....                                ....    ",
"    ....                                ....    ",
"    ....                                ....    ",
"    ....                                ....    ",
"    ....                                ....    ",
"    ....                                ....    ",
"    ....                                ....    ",
"    ....                                ....    ",
"    ....                                ....    ",
"    ....                                ....    ",
"    ....                                ....    ",
"    ....                                ....    ",
"    ....                                ....    ",
"    ....                                ....    ",
"    ....                                ....    ",
"    ....                                ....    ",
"    ....                                ....    ",
"    ....                                ....    ",
"    ....                                ....    ",
"    ....                                ....    ",
"    ....                                ....    ",
"    ....                                ....    ",
"    ....                                ....    ",
"    ....                                ....    ",
"    ....                                ....    ",
"    ....                                ....    ",
"    ....                                ....    ",
"    ....                                ....    ",
"    ....                                ....    ",
"    ....                                ....    ",
"    ........................................    ",
"    ........................................    ",
"    ........................................    ",
"    ........................................    ",
"                                                ",
"                                                ",
"                                                ",
"                                                "
};
